.
 
http://www.scenetime.com    -   SceneTime [ We been having it ] !!!


How come you press harder on a remote control when you know the battery is dead? so you better seed to get speed ;)

        Seed back for speed


...................................NFO:.................................................General 
Format                           : AVI 
File size                        : 1.07 GiB 
Overall bit rate                 : 1 744 Kbps 
Video 
Format                           : MPEG-4 Visual 
Format settings, BVOP            : Yes 
Format settings, GMC             : No warppoints 
Muxing mode                      : Packed bitstream 
Codec ID/Hint                    : XviD 
Bit rate                         : 1 606 Kbps 
Height                           : 380 pixels 
Frame rate                       : 25.000 fps 
Chroma subsampling               : 4:2:0 
Scan type                        : Progressive 
Stream size                      : 1 013 MiB (92%) 
Audio 
Format                           : MPEG Audio 
Format profile                   : Layer 3 
Mode extension                   : MS Stereo 
Codec ID/Hint                    : MP3 
Bit rate mode                    : Constant 
Channel(s)                       : 2 channels 
Stream size                      : 80.8 MiB (7%) 
Interleave, duration             : 40 ms (1.00 video frame) 